<svg width="67" height="89" viewBox="0 0 67 89" fill="none" xmlns="http://www.w3.org/2000/svg">
<path d="M58.3553 88.9171H8.55054C6.34978 88.9147 4.23984 88.0394 2.68367 86.4832C1.12749 84.927 0.252173 82.8171 0.249756 80.6163V11.4431C0.252173 9.24236 1.12749 7.13242 2.68367 5.57625C4.23984 4.02007 6.34978 3.14475 8.55054 3.14233H58.3553C60.556 3.14475 62.666 4.02007 64.2221 5.57625C65.7783 7.13242 66.6536 9.24236 66.656 11.4431V80.6163C66.6536 82.8171 65.7783 84.927 64.2221 86.4832C62.666 88.0394 60.556 88.9147 58.3553 88.9171ZM8.55054 8.67619C7.817 8.67714 7.11377 8.96896 6.59508 9.48766C6.07639 10.0064 5.78456 10.7096 5.78361 11.4431V80.6163C5.78456 81.3499 6.07639 82.0531 6.59508 82.5718C7.11377 83.0905 7.817 83.3823 8.55054 83.3833H58.3553C59.0888 83.3823 59.792 83.0905 60.3107 82.5718C60.8294 82.0531 61.1212 81.3499 61.1222 80.6163V11.4431C61.1212 10.7096 60.8294 10.0064 60.3107 9.48766C59.792 8.96896 59.0888 8.67714 58.3553 8.67619H8.55054Z" fill="#FFC000"/>
<path d="M63.8891 22.5108H3.01668C2.28285 22.5108 1.57907 22.2193 1.06017 21.7004C0.541271 21.1815 0.249756 20.4777 0.249756 19.7439C0.249756 19.01 0.541271 18.3062 1.06017 17.7873C1.57907 17.2684 2.28285 16.9769 3.01668 16.9769H63.8891C64.6229 16.9769 65.3267 17.2684 65.8456 17.7873C66.3645 18.3062 66.656 19.01 66.656 19.7439C66.656 20.4777 66.3645 21.1815 65.8456 21.7004C65.3267 22.2193 64.6229 22.5108 63.8891 22.5108Z" fill="#FFC000"/>
<path d="M11.3176 11.4431C10.5838 11.4431 9.87997 11.1516 9.36107 10.6327C8.84217 10.1138 8.55066 9.40999 8.55066 8.67615V3.1423C8.55066 2.40846 8.84217 1.70468 9.36107 1.18578C9.87997 0.666881 10.5838 0.375366 11.3176 0.375366C12.0514 0.375366 12.7552 0.666881 13.2741 1.18578C13.793 1.70468 14.0845 2.40846 14.0845 3.1423V8.67615C14.0845 9.40999 13.793 10.1138 13.2741 10.6327C12.7552 11.1516 12.0514 11.4431 11.3176 11.4431Z" fill="#1B1B1B"/>
<path d="M22.373 11.4431C21.6392 11.4431 20.9354 11.1516 20.4165 10.6327C19.8976 10.1138 19.6061 9.40999 19.6061 8.67615V3.1423C19.6061 2.40846 19.8976 1.70468 20.4165 1.18578C20.9354 0.666881 21.6392 0.375366 22.373 0.375366C23.1068 0.375366 23.8106 0.666881 24.3295 1.18578C24.8484 1.70468 25.1399 2.40846 25.1399 3.1423V8.67615C25.1399 9.40999 24.8484 10.1138 24.3295 10.6327C23.8106 11.1516 23.1068 11.4431 22.373 11.4431Z" fill="#1B1B1B"/>
<path d="M33.4288 11.4431C32.695 11.4431 31.9912 11.1516 31.4723 10.6327C30.9534 10.1138 30.6619 9.40999 30.6619 8.67615V3.1423C30.6619 2.40846 30.9534 1.70468 31.4723 1.18578C31.9912 0.666881 32.695 0.375366 33.4288 0.375366C34.1626 0.375366 34.8664 0.666881 35.3853 1.18578C35.9042 1.70468 36.1957 2.40846 36.1957 3.1423V8.67615C36.1957 9.40999 35.9042 10.1138 35.3853 10.6327C34.8664 11.1516 34.1626 11.4431 33.4288 11.4431Z" fill="#1B1B1B"/>
<path d="M44.4842 11.4431C43.7504 11.4431 43.0466 11.1516 42.5277 10.6327C42.0088 10.1138 41.7173 9.40999 41.7173 8.67615V3.1423C41.7173 2.40846 42.0088 1.70468 42.5277 1.18578C43.0466 0.666881 43.7504 0.375366 44.4842 0.375366C45.218 0.375366 45.9218 0.666881 46.4407 1.18578C46.9596 1.70468 47.2511 2.40846 47.2511 3.1423V8.67615C47.2511 9.40999 46.9596 10.1138 46.4407 10.6327C45.9218 11.1516 45.218 11.4431 44.4842 11.4431Z" fill="#1B1B1B"/>
<path d="M55.5384 11.4431C54.8046 11.4431 54.1008 11.1516 53.5819 10.6327C53.063 10.1138 52.7715 9.40999 52.7715 8.67615V3.1423C52.7715 2.40846 53.063 1.70468 53.5819 1.18578C54.1008 0.666881 54.8046 0.375366 55.5384 0.375366C56.2722 0.375366 56.976 0.666881 57.4949 1.18578C58.0138 1.70468 58.3053 2.40846 58.3053 3.1423V8.67615C58.3053 9.40999 58.0138 10.1138 57.4949 10.6327C56.976 11.1516 56.2722 11.4431 55.5384 11.4431Z" fill="#1B1B1B"/>
<path d="M52.723 32.195H33.453C32.7191 32.195 32.0154 31.9035 31.4965 31.3846C30.9776 30.8657 30.686 30.1619 30.686 29.4281C30.686 28.6942 30.9776 27.9904 31.4965 27.4715C32.0154 26.9526 32.7191 26.6611 33.453 26.6611H52.723C53.4568 26.6611 54.1606 26.9526 54.6795 27.4715C55.1984 27.9904 55.4899 28.6942 55.4899 29.4281C55.4899 30.1619 55.1984 30.8657 54.6795 31.3846C54.1606 31.9035 53.4568 32.195 52.723 32.195Z" fill="#1B1B1B"/>
<path d="M47.2876 40.4959H33.453C32.7191 40.4959 32.0154 40.2044 31.4965 39.6855C30.9776 39.1666 30.686 38.4628 30.686 37.729C30.686 36.9951 30.9776 36.2914 31.4965 35.7725C32.0154 35.2536 32.7191 34.962 33.453 34.962H47.2876C48.0214 34.962 48.7252 35.2536 49.2441 35.7725C49.763 36.2914 50.0545 36.9951 50.0545 37.729C50.0545 38.4628 49.763 39.1666 49.2441 39.6855C48.7252 40.2044 48.0214 40.4959 47.2876 40.4959Z" fill="#1B1B1B"/>
<path d="M25.1523 41.8794H14.0846C13.3507 41.8794 12.6469 41.5879 12.128 41.069C11.6091 40.5501 11.3176 39.8463 11.3176 39.1125V28.0448C11.3176 27.3109 11.6091 26.6071 12.128 26.0882C12.6469 25.5693 13.3507 25.2778 14.0846 25.2778H25.1523C25.8861 25.2778 26.5899 25.5693 27.1088 26.0882C27.6277 26.6071 27.9192 27.3109 27.9192 28.0448V39.1125C27.9192 39.8463 27.6277 40.5501 27.1088 41.069C26.5899 41.5879 25.8861 41.8794 25.1523 41.8794ZM16.8515 36.3455H22.3853V30.8117H16.8515V36.3455Z" fill="#1B1B1B"/>
<path d="M52.723 51.5635H33.453C32.7191 51.5635 32.0154 51.272 31.4965 50.7531C30.9776 50.2342 30.686 49.5304 30.686 48.7966C30.686 48.0628 30.9776 47.359 31.4965 46.8401C32.0154 46.3212 32.7191 46.0297 33.453 46.0297H52.723C53.4568 46.0297 54.1606 46.3212 54.6795 46.8401C55.1984 47.359 55.4899 48.0628 55.4899 48.7966C55.4899 49.5304 55.1984 50.2342 54.6795 50.7531C54.1606 51.272 53.4568 51.5635 52.723 51.5635Z" fill="#1B1B1B"/>
<path d="M47.2876 59.8643H33.453C32.7191 59.8643 32.0154 59.5728 31.4965 59.0539C30.9776 58.535 30.686 57.8312 30.686 57.0974C30.686 56.3635 30.9776 55.6598 31.4965 55.1409C32.0154 54.622 32.7191 54.3304 33.453 54.3304H47.2876C48.0214 54.3304 48.7252 54.622 49.2441 55.1409C49.763 55.6598 50.0545 56.3635 50.0545 57.0974C50.0545 57.8312 49.763 58.535 49.2441 59.0539C48.7252 59.5728 48.0214 59.8643 47.2876 59.8643Z" fill="#1B1B1B"/>
<path d="M25.1523 61.2478H14.0846C13.3507 61.2478 12.6469 60.9563 12.128 60.4374C11.6091 59.9185 11.3176 59.2147 11.3176 58.4809V47.4132C11.3176 46.6793 11.6091 45.9756 12.128 45.4567C12.6469 44.9378 13.3507 44.6462 14.0846 44.6462H25.1523C25.8861 44.6462 26.5899 44.9378 27.1088 45.4567C27.6277 45.9756 27.9192 46.6793 27.9192 47.4132V58.4809C27.9192 59.2147 27.6277 59.9185 27.1088 60.4374C26.5899 60.9563 25.8861 61.2478 25.1523 61.2478ZM16.8515 55.714H22.3853V50.1801H16.8515V55.714Z" fill="#1B1B1B"/>
<path d="M52.723 70.9321H33.453C32.7191 70.9321 32.0154 70.6405 31.4965 70.1216C30.9776 69.6027 30.686 68.899 30.686 68.1651C30.686 67.4313 30.9776 66.7275 31.4965 66.2086C32.0154 65.6897 32.7191 65.3982 33.453 65.3982H52.723C53.4568 65.3982 54.1606 65.6897 54.6795 66.2086C55.1984 66.7275 55.4899 67.4313 55.4899 68.1651C55.4899 68.899 55.1984 69.6027 54.6795 70.1216C54.1606 70.6405 53.4568 70.9321 52.723 70.9321Z" fill="#1B1B1B"/>
<path d="M47.2876 79.2328H33.453C32.7191 79.2328 32.0154 78.9413 31.4965 78.4224C30.9776 77.9035 30.686 77.1997 30.686 76.4659C30.686 75.7321 30.9776 75.0283 31.4965 74.5094C32.0154 73.9905 32.7191 73.699 33.453 73.699H47.2876C48.0214 73.699 48.7252 73.9905 49.2441 74.5094C49.763 75.0283 50.0545 75.7321 50.0545 76.4659C50.0545 77.1997 49.763 77.9035 49.2441 78.4224C48.7252 78.9413 48.0214 79.2328 47.2876 79.2328Z" fill="#1B1B1B"/>
<path d="M25.1523 80.6163H14.0846C13.3507 80.6163 12.6469 80.3248 12.128 79.8059C11.6091 79.287 11.3176 78.5832 11.3176 77.8494V66.7817C11.3176 66.0479 11.6091 65.3441 12.128 64.8252C12.6469 64.3063 13.3507 64.0148 14.0846 64.0148H25.1523C25.8861 64.0148 26.5899 64.3063 27.1088 64.8252C27.6277 65.3441 27.9192 66.0479 27.9192 66.7817V77.8494C27.9192 78.5832 27.6277 79.287 27.1088 79.8059C26.5899 80.3248 25.8861 80.6163 25.1523 80.6163ZM16.8515 75.0825H22.3853V69.5486H16.8515V75.0825Z" fill="#1B1B1B"/>
</svg>
