<svg width="116" height="90" viewBox="0 0 116 90" fill="none" xmlns="http://www.w3.org/2000/svg">
<path d="M30.9813 79.1217V84.9133C30.9803 86.0662 30.5218 87.1717 29.7066 87.987C28.8913 88.8022 27.7859 89.2607 26.6329 89.2617H15.2934C14.1405 89.2607 13.035 88.8022 12.2198 87.987C11.4045 87.1717 10.9461 86.0662 10.9451 84.9133V79.0468C11.2546 79.0996 11.5682 79.1247 11.8822 79.1217H30.9813Z" fill="#1B1B1B"/>
<path d="M70.7164 7.59871C62.26 7.0691 53.7798 7.0378 45.3197 7.50499L46.4443 2.66931C46.5604 2.16076 46.8466 1.70707 47.2556 1.38329C47.6646 1.05951 48.1718 0.885037 48.6934 0.888729H67.3239C67.8476 0.888047 68.3558 1.06596 68.7648 1.39309C69.1737 1.72022 69.4588 2.17701 69.5731 2.68805L70.7164 7.59871Z" fill="#FFC000"/>
<path d="M105.11 79.0468V85.082C105.109 86.2349 104.65 87.3404 103.835 88.1556C103.02 88.9709 101.914 89.4294 100.761 89.4303H89.4407C88.2877 89.4294 87.1822 88.9709 86.367 88.1556C85.5517 87.3404 85.0933 86.2349 85.0923 85.082V79.1217H104.173C104.487 79.1255 104.8 79.1004 105.11 79.0468Z" fill="#1B1B1B"/>
<path d="M114.444 25.5919C113.956 25.1179 113.306 24.8495 112.626 24.8422L103.873 25.0483C103.226 25.0576 102.609 25.3199 102.154 25.7789C101.698 26.2379 101.441 26.8571 101.436 27.5037L101.38 32.6018C101.378 32.9367 101.443 33.2686 101.572 33.5777C101.7 33.8869 101.89 34.1669 102.13 34.4011L98.6435 36.8189C77.1453 33.3327 38.891 34.0262 17.524 36.8377L13.9066 34.3823C14.1396 34.1482 14.3241 33.8705 14.4496 33.5649C14.575 33.2594 14.6389 32.932 14.6376 32.6018L14.5814 27.5037C14.577 26.8571 14.3195 26.2379 13.864 25.7789C13.4085 25.3199 12.7913 25.0576 12.1448 25.0483L3.39181 24.8422C3.05396 24.8387 2.71888 24.9033 2.40653 25.0321C2.09418 25.1609 1.81096 25.3513 1.57374 25.5919C1.33269 25.8278 1.14326 26.1113 1.01744 26.4242C0.89161 26.7372 0.832131 27.0728 0.842764 27.41L0.955221 31.4584C0.970954 32.0462 1.19408 32.6094 1.58512 33.0485C1.97616 33.4875 2.50991 33.7741 3.09192 33.8575L11.5825 35.0758L15.0874 37.4374C13.5986 38.132 12.2691 39.1264 11.1822 40.3584C10.0954 41.5903 9.27452 43.0334 8.77103 44.5972C8.00027 46.8776 7.5155 49.2448 7.32783 51.6446H18.761C19.2754 51.6347 19.7865 51.7292 20.2633 51.9225C20.7401 52.1158 21.1727 52.4038 21.535 52.7692C23.6006 54.8518 25.2933 57.2735 26.5394 59.929C26.8281 60.5354 26.9584 61.205 26.9179 61.8754C26.8775 62.5458 26.6678 63.195 26.3083 63.7623C25.9488 64.3296 25.4514 64.7965 24.8624 65.1193C24.2735 65.4421 23.6123 65.6103 22.9407 65.6081H6.85925C6.81169 68.5801 7.10092 71.5479 7.72143 74.4548C8.05446 75.2842 8.62946 75.9942 9.37159 76.4923C10.1137 76.9904 10.9886 77.2535 11.8824 77.2475H104.173C105.05 77.2549 105.909 77.0001 106.64 76.5159C107.372 76.0317 107.942 75.3401 108.277 74.5297C108.96 71.6042 109.319 68.6122 109.346 65.6081H92.9082C92.2347 65.6097 91.5719 65.4403 90.9818 65.1158C90.3917 64.7912 89.8937 64.3222 89.5344 63.7525C89.1765 63.2047 88.9646 62.5745 88.9187 61.9217C88.8727 61.2689 88.9944 60.6153 89.272 60.0227C90.5207 57.2575 92.3043 54.7668 94.5201 52.6942C95.2536 52.0141 96.2187 51.6388 97.219 51.6446H108.858C108.568 48.4342 107.597 45.3225 106.009 42.5168C104.853 40.3892 103.11 38.639 100.986 37.4749L104.454 35.0758L112.926 33.8575C113.508 33.7741 114.041 33.4875 114.432 33.0485C114.823 32.6094 115.047 32.0462 115.062 31.4584L115.175 27.41C115.185 27.0728 115.126 26.7372 115 26.4242C114.874 26.1113 114.685 25.8278 114.444 25.5919ZM43.408 54.4748H72.6095C72.8581 54.4748 73.0965 54.5735 73.2722 54.7493C73.448 54.925 73.5467 55.1634 73.5467 55.4119C73.5467 55.6605 73.448 55.8989 73.2722 56.0746C73.0965 56.2504 72.8581 56.3491 72.6095 56.3491H43.408C43.1595 56.3491 42.9211 56.2504 42.7454 56.0746C42.5696 55.8989 42.4709 55.6605 42.4709 55.4119C42.4709 55.1634 42.5696 54.925 42.7454 54.7493C42.9211 54.5735 43.1595 54.4748 43.408 54.4748ZM80.7065 65.5331H35.3111C35.0625 65.5331 34.8241 65.4344 34.6484 65.2586C34.4726 65.0829 34.3739 64.8445 34.3739 64.596C34.3739 64.3474 34.4726 64.1091 34.6484 63.9333C34.8241 63.7576 35.0625 63.6588 35.3111 63.6588H80.7065C80.955 63.6588 81.1934 63.7576 81.3692 63.9333C81.5449 64.1091 81.6436 64.3474 81.6436 64.596C81.6436 64.8445 81.5449 65.0829 81.3692 65.2586C81.1934 65.4344 80.955 65.5331 80.7065 65.5331Z" fill="#FFC000"/>
<path d="M24.7211 62.7405C24.9123 62.4452 25.0247 62.1059 25.0476 61.7548C25.0706 61.4038 25.0034 61.0527 24.8523 60.735C23.6964 58.2722 22.1239 56.0276 20.2041 54.1C20.0168 53.9086 19.7918 53.7582 19.5434 53.6582C19.295 53.5581 19.0285 53.5108 18.7608 53.519H7.15895C6.89655 56.8177 6.80284 60.4351 6.84032 63.7339H22.9405C23.2977 63.7356 23.6493 63.645 23.9613 63.471C24.2732 63.297 24.5349 63.0454 24.7211 62.7405Z" fill="#1B1B1B"/>
<path d="M97.2189 53.519C96.6918 53.5098 96.1814 53.7045 95.7944 54.0625C93.7604 55.9769 92.118 58.2686 90.9588 60.81C90.8206 61.1187 90.762 61.4571 90.7882 61.7943C90.8144 62.1315 90.9246 62.4568 91.1087 62.7405C91.3006 63.0444 91.5661 63.2948 91.8807 63.4685C92.1953 63.6422 92.5487 63.7335 92.908 63.7339H109.421C109.53 60.3252 109.418 56.913 109.083 53.519H97.2189Z" fill="#1B1B1B"/>
<path d="M84.0376 11.15L84.0433 11.1506C84.4829 11.1999 84.8962 11.3851 85.2254 11.6805C88.7869 14.9203 91.687 19.4646 93.9144 23.875C95.9343 27.8746 97.3875 31.737 98.2726 34.3601C85.7669 32.6821 73.1548 31.921 60.5373 32.083C46.3054 32.0014 32.0816 32.773 17.9425 34.3934C20.9689 25.9606 25.7221 18.2488 31.9012 11.753C32.2333 11.4235 32.6595 11.2054 33.121 11.1289C54.8276 7.86052 79.3396 10.5697 84.0376 11.15Z" fill="#F7F7F7" stroke="#1B1B1B"/>
</svg>
