<svg width="76" height="89" viewBox="0 0 76 89" fill="none" xmlns="http://www.w3.org/2000/svg">
<path d="M75.2783 29.7806C75.243 29.321 75.2047 28.8967 75.1664 28.4798C74.8349 25.2757 74.4637 23.1868 74.3532 22.6064C74.3341 22.4989 74.3223 22.4429 74.3223 22.4429C73.764 18.9427 71.9004 15.4838 69.184 12.6421C66.4675 9.80047 63.0248 7.7484 59.4908 7.01183C58.6349 6.83358 57.6891 6.65828 56.6727 6.49182H56.6432C56.6147 5.9556 56.5852 5.41839 56.5548 4.88021C56.4414 2.93567 54.8872 1.19737 53.0988 1.04122C53.0119 1.03386 52.9265 1.03091 52.8425 1.03091C51.1793 1.03091 49.9257 2.48637 49.9905 4.36903C50.0092 4.89052 50.0274 5.41201 50.045 5.9335C46.922 5.82007 43.9006 5.76261 41.1061 5.73757C41.1061 5.16452 41.0957 4.59295 41.0899 4.0199C41.0663 2.02528 39.5946 0.375366 37.8062 0.375366C36.0164 0.375366 34.5447 2.02528 34.5211 4.0199C34.5153 4.59344 34.5098 5.16649 34.5049 5.73904C29.3033 5.78618 25.8223 5.92466 25.5306 5.93644C25.5483 5.41496 25.566 4.89199 25.5851 4.3705C25.6499 2.48931 24.3963 1.03386 22.7346 1.03386C22.6485 1.03341 22.5625 1.03734 22.4768 1.04564C20.6884 1.20327 19.1343 2.94009 19.0194 4.88315L18.931 6.49623H18.8853C17.8836 6.66123 16.9496 6.83506 16.1055 7.01036C12.57 7.74693 9.13169 9.80931 6.41081 12.6421C3.68993 15.475 1.82936 18.9442 1.27252 22.4429C1.25779 22.5048 1.24306 22.5696 1.22833 22.6359C0.751031 24.8043 0.428415 28.4798 0.428415 28.4798C0.390113 28.8908 0.351812 29.3224 0.316456 29.7821C0.166197 31.7605 0.0645507 34.2412 0.0851745 37.8327C0.207445 46.7098 0.829107 49.6178 1.548 53.9149C1.548 53.9518 1.56125 53.9871 1.56715 54.0225C2.18881 57.5403 4.09652 61.0552 6.82034 63.9617C9.54417 66.8682 12.9574 68.9969 16.4414 69.7894C21.4824 70.9591 29.6583 71.9343 37.3923 71.9343H38.1937C45.9291 71.9343 54.1035 70.9591 59.1446 69.7894C62.6285 68.9969 66.0359 66.8608 68.7656 63.9617C71.4953 61.0626 73.403 57.5403 74.0232 54.0225C74.0232 53.9871 74.035 53.9503 74.0424 53.9149C74.7613 49.6163 75.3829 46.7098 75.5052 37.8327C75.5302 34.2383 75.4286 31.7516 75.2783 29.7806ZM11.5196 17.5315C13.3124 15.6665 15.5074 14.3554 17.5418 13.9326C18.2239 13.7853 18.9707 13.6527 19.7677 13.5172L25.9475 12.9913C26.8152 12.9589 31.5101 12.7895 37.8917 12.7895C41.9472 12.7895 45.8952 12.8572 49.6252 12.9898L55.7932 13.5128C56.6005 13.6483 57.3591 13.7897 58.0515 13.9326C60.0889 14.3569 62.2868 15.6694 64.0796 17.5359C65.4054 18.9206 66.4012 20.5072 66.9492 22.0555C44.9023 20.6943 21.0228 21.5561 8.59547 22.2028C9.13169 20.6059 10.1526 18.9619 11.5196 17.5315ZM68.4386 37.7591C68.3325 45.3236 67.8493 48.1255 67.2527 51.6713C67.1957 52.0102 67.1373 52.3539 67.0774 52.7025C67.0774 52.7349 67.0656 52.7659 67.0612 52.7983C66.6929 54.868 65.4408 57.1661 63.6229 59.1092C61.8051 61.0522 59.5909 62.4311 57.5831 62.8863L57.5506 62.8937C53.3419 63.8704 45.7273 64.8559 38.1981 64.8559H37.3967C29.8675 64.8559 22.2514 63.8704 18.0441 62.8937L18.0117 62.8863C16.0097 62.4311 13.8118 61.0567 11.9822 59.1166C10.1526 57.1764 8.90777 54.8725 8.53802 52.8027C8.53802 52.7703 8.52623 52.7394 8.52181 52.707C8.46289 52.3549 8.40396 52.0116 8.34651 51.6758C7.74252 48.1285 7.26523 45.3266 7.15916 37.7547C7.1297 33.4826 7.29469 31.0106 7.45379 29.3401C19.4701 28.6831 45.0658 27.6593 68.1381 29.212C68.2913 30.8766 68.4651 33.3559 68.4386 37.7591Z" fill="#FFC000"/>
<path d="M37.7948 29.8892C26.0414 29.8892 16.4792 39.4791 16.4792 51.2667C16.4792 65.8955 35.5546 87.3714 36.3668 88.2785C37.1296 89.1306 38.4615 89.1291 39.2229 88.2785C40.0351 87.3714 59.1105 65.8955 59.1105 51.2667C59.1102 39.4791 49.5482 29.8892 37.7948 29.8892ZM37.7948 62.0223C31.8814 62.0223 27.0705 57.1974 27.0705 51.2667C27.0705 45.336 31.8815 40.5112 37.7948 40.5112C43.7082 40.5112 48.519 45.3361 48.519 51.2668C48.519 57.1975 43.7082 62.0223 37.7948 62.0223Z" fill="#1B1B1B"/>
<circle cx="37.795" cy="51.2049" r="6.55865" fill="#FFC000"/>
</svg>
