<svg width="35" height="32" viewBox="0 0 35 32" fill="none" xmlns="http://www.w3.org/2000/svg">
<path d="M26.3557 10.2791H33.5096V31.1444H26.3557V10.2791Z" fill="#D6D5D0"/>
<path d="M26.3557 28.7598H33.5096V31.1444H26.3557V28.7598Z" fill="#AEADAA"/>
<path d="M1.31726 10.2791H26.3557V31.1444H1.31726V10.2791Z" fill="#FFC864"/>
<path d="M9.66341 9.68286C9.33415 9.68286 9.06726 9.94979 9.06726 10.279V12.6636C9.06726 12.9929 9.33415 13.2598 9.66341 13.2598C9.99268 13.2598 10.2596 12.9929 10.2596 12.6636V10.279C10.2596 9.94979 9.99268 9.68286 9.66341 9.68286Z" fill="#E6E5E0"/>
<path d="M18.0096 9.68274C17.6803 9.68274 17.4135 9.94967 17.4135 10.2789V12.6635C17.4135 12.9927 17.6803 13.2597 18.0096 13.2597C18.3389 13.2597 18.6058 12.9927 18.6058 12.6635V10.2789C18.6058 9.94967 18.3389 9.68274 18.0096 9.68274Z" fill="#E6E5E0"/>
<path d="M8.47119 12.6637H19.202V15.0483H8.47119V12.6637Z" fill="#ECAB2C"/>
<path d="M7.27886 4.9137H5.4904L4.2981 7.29831H7.27886V4.9137Z" fill="#ECAB2C"/>
<path d="M27.5481 4.9137H29.3366L30.5289 7.29831H27.5481V4.9137Z" fill="#ECAB2C"/>
<path d="M34.7019 10.279H0.125L1.31731 7.29822H33.5096L34.7019 10.279Z" fill="#E42A3C"/>
<path d="M23.3634 20.9433L19.7348 20.0886H6.45592L3.80015 21.0098L3.7019 23.3944L5.49037 24.262H24.1879L24.4139 22.4541C24.5011 21.7561 24.0481 21.1045 23.3634 20.9433Z" fill="#E42A3C"/>
<path d="M20.953 26.3751C21.9614 26.3751 22.7788 25.5577 22.7788 24.5493C22.7788 23.5409 21.9614 22.7235 20.953 22.7235C19.9446 22.7235 19.1272 23.5409 19.1272 24.5493C19.1272 25.5577 19.9446 26.3751 20.953 26.3751Z" fill="#D6D5D0"/>
<path d="M7.14354 26.3751C8.1519 26.3751 8.96934 25.5577 8.96934 24.5493C8.96934 23.5409 8.1519 22.7235 7.14354 22.7235C6.13519 22.7235 5.31775 23.5409 5.31775 24.5493C5.31775 25.5577 6.13519 26.3751 7.14354 26.3751Z" fill="#D6D5D0"/>
<path d="M12.0481 19.8175H13.2404V24.2621H12.0481V19.8175Z" fill="#C92535"/>
<path d="M20.953 26.9713C19.6175 26.9713 18.531 25.8848 18.531 24.5493C18.531 23.2139 19.6175 22.1273 20.953 22.1273C22.2884 22.1273 23.3749 23.2138 23.3749 24.5493C23.3749 25.8849 22.2884 26.9713 20.953 26.9713ZM20.953 23.3196C20.2749 23.3196 19.7233 23.8712 19.7233 24.5494C19.7233 25.2275 20.2749 25.779 20.953 25.779C21.631 25.779 22.1826 25.2274 22.1826 24.5494C22.1826 23.8713 21.631 23.3196 20.953 23.3196Z" fill="#6A6C65"/>
<path d="M7.14363 26.9713C5.80818 26.9713 4.72168 25.8848 4.72168 24.5493C4.72168 23.2139 5.80818 22.1273 7.14363 22.1273C8.47908 22.1273 9.56562 23.2138 9.56562 24.5493C9.56562 25.8849 8.47912 26.9713 7.14363 26.9713ZM7.14363 23.3196C6.46561 23.3196 5.91399 23.8712 5.91399 24.5494C5.91399 25.2275 6.4656 25.779 7.14363 25.779C7.82166 25.779 8.37331 25.2274 8.37331 24.5494C8.37331 23.8713 7.82169 23.3196 7.14363 23.3196Z" fill="#6A6C65"/>
<path d="M4.2981 26.3751H23.375V28.7597H4.2981V26.3751Z" fill="#7A4922"/>
<path d="M4.2981 26.3751H23.375V27.3593H4.2981V26.3751Z" fill="#5B3719"/>
<path d="M1.31726 28.7598H26.3557V31.1444H1.31726V28.7598Z" fill="#D6D5D0"/>
<path d="M7.27881 0.144409H27.548V7.29826H7.27881V0.144409Z" fill="#D78E0C"/>
<path d="M26.3557 16.2406H33.5096V28.7598H26.3557V16.2406Z" fill="#ECAB2C"/>
<path d="M25.7596 12.6637H34.1058V16.2406H25.7596V12.6637Z" fill="#D78E0C"/>
<path d="M26.3557 18.6251H33.5096V28.7597H26.3557V18.6251Z" fill="#A1DCFF"/>
<path d="M29.3365 18.6251H30.5289V28.7597H29.3365V18.6251Z" fill="#92D1F7"/>
<path d="M9.66345 2.52905H25.1635V4.91367H9.66345V2.52905Z" fill="#ECAB2C"/>
<path d="M4.89426 7.29822C4.89426 7.37199 4.88085 7.44651 4.85178 7.51954L3.74815 10.279H2.50964C2.50964 10.2052 2.52306 10.1307 2.55212 10.0577L3.65575 7.29822H4.89426Z" fill="#C92535"/>
<path d="M8.47116 7.29822C8.47116 7.37199 8.45775 7.44651 8.42869 7.51954L7.32506 10.279H6.08655C6.08655 10.2052 6.09996 10.1307 6.12902 10.0577L7.23265 7.29822H8.47116Z" fill="#C92535"/>
<path d="M12.0481 7.29822C12.0481 7.37199 12.0347 7.44651 12.0056 7.51954L10.902 10.279H9.66345C9.66345 10.2052 9.67687 10.1307 9.70593 10.0577L10.8096 7.29822H12.0481Z" fill="#C92535"/>
<path d="M15.625 7.29822C15.625 7.37199 15.6116 7.44651 15.5825 7.51954L14.4789 10.279H13.2404C13.2404 10.2052 13.2538 10.1307 13.2828 10.0577L14.3865 7.29822H15.625Z" fill="#C92535"/>
<path d="M32.3174 10.279H31.0788L29.9752 7.51954C29.9462 7.44651 29.9327 7.37199 29.9327 7.29822H31.1712L32.2749 10.0577C32.3039 10.1307 32.3174 10.2052 32.3174 10.279Z" fill="#C92535"/>
<path d="M28.7403 10.279H27.5018L26.3982 7.51954C26.3691 7.44651 26.3557 7.37199 26.3557 7.29822H27.5942L28.6978 10.0577C28.7269 10.1307 28.7403 10.2052 28.7403 10.279Z" fill="#C92535"/>
<path d="M25.1634 10.279H23.9249L22.8213 7.51954C22.7922 7.44651 22.7788 7.37199 22.7788 7.29822H24.0173L25.1209 10.0577C25.15 10.1307 25.1634 10.2052 25.1634 10.279Z" fill="#C92535"/>
<path d="M21.5865 10.279H20.348L19.2444 7.51954C19.2153 7.44651 19.2019 7.37199 19.2019 7.29822H20.4404L21.544 10.0577C21.5731 10.1307 21.5865 10.2052 21.5865 10.279Z" fill="#C92535"/>
<path d="M16.8173 7.29822H18.0096V10.279H16.8173V7.29822Z" fill="#C92535"/>
<path d="M19.7348 20.0886L17.1659 17.8408C16.8653 17.5778 16.4795 17.4329 16.0802 17.4329H9.79463C9.35737 17.4329 8.93801 17.6066 8.62882 17.9157L6.45593 20.0886H19.7348Z" fill="#A1DCFF"/>
<path d="M12.0481 17.4329H13.2404V20.0887H12.0481V17.4329Z" fill="#92D1F7"/>
</svg>
