<svg width="63" height="33" viewBox="0 0 63 33" fill="none" xmlns="http://www.w3.org/2000/svg">
<path d="M11.813 28.2083C13.4439 28.2083 14.7661 26.8862 14.7661 25.2552C14.7661 23.6243 13.4439 22.3021 11.813 22.3021C10.182 22.3021 8.85986 23.6243 8.85986 25.2552C8.85986 26.8862 10.182 28.2083 11.813 28.2083Z" fill="#DCE1EB"/>
<path d="M11.8128 25.2552C11.8133 24.7387 11.9501 24.2314 12.2093 23.7846C12.4686 23.3378 12.8411 22.9674 13.2894 22.7106C12.8408 22.4465 12.3304 22.3056 11.8099 22.3022C11.2894 22.2988 10.7772 22.4331 10.3253 22.6914C9.87335 22.9497 9.49773 23.3229 9.23649 23.7731C8.97524 24.2234 8.83765 24.7347 8.83765 25.2552C8.83765 25.7758 8.97524 26.2871 9.23649 26.7373C9.49773 27.1875 9.87335 27.5607 10.3253 27.8191C10.7772 28.0774 11.2894 28.2116 11.8099 28.2083C12.3304 28.2049 12.8408 28.064 13.2894 27.7998C12.8411 27.5431 12.4686 27.1726 12.2093 26.7259C11.9501 26.2791 11.8133 25.7718 11.8128 25.2552Z" fill="#BEC3D2"/>
<path d="M11.8127 31.1613C10.2463 31.1613 8.74402 30.539 7.63639 29.4314C6.52876 28.3238 5.9065 26.8215 5.9065 25.2551C5.90503 24.0597 6.26681 22.892 6.94392 21.9069C7.62102 20.9217 8.58149 20.1656 9.69804 19.7386C10.8146 19.3116 12.0345 19.234 13.1962 19.5159C14.3579 19.7979 15.4065 20.4262 16.203 21.3176C17.1815 22.3952 17.7221 23.7995 17.7189 25.2551C17.7189 26.8215 17.0967 28.3238 15.989 29.4314C14.8814 30.539 13.3791 31.1613 11.8127 31.1613ZM11.8127 22.302C11.2286 22.302 10.6577 22.4752 10.1721 22.7997C9.68642 23.1242 9.30791 23.5854 9.08439 24.125C8.86088 24.6646 8.8024 25.2584 8.91635 25.8312C9.03029 26.4041 9.31155 26.9302 9.72455 27.3432C10.1375 27.7562 10.6637 28.0375 11.2366 28.1515C11.8094 28.2654 12.4032 28.2069 12.9428 27.9834C13.4824 27.7599 13.9436 27.3814 14.2681 26.8957C14.5926 26.4101 14.7658 25.8392 14.7658 25.2551C14.7658 24.4719 14.4547 23.7207 13.9009 23.1669C13.3471 22.6131 12.5959 22.302 11.8127 22.302Z" fill="#707789"/>
<path d="M51.1877 28.2083C52.8187 28.2083 54.1408 26.8862 54.1408 25.2552C54.1408 23.6243 52.8187 22.3021 51.1877 22.3021C49.5568 22.3021 48.2346 23.6243 48.2346 25.2552C48.2346 26.8862 49.5568 28.2083 51.1877 28.2083Z" fill="#DCE1EB"/>
<path d="M51.1876 25.2552C51.188 24.7387 51.3248 24.2314 51.5841 23.7846C51.8433 23.3378 52.2159 22.9674 52.6641 22.7106C52.2156 22.4465 51.7052 22.3056 51.1847 22.3022C50.6641 22.2988 50.152 22.4331 49.7 22.6914C49.2481 22.9497 48.8725 23.3229 48.6112 23.7731C48.35 24.2234 48.2124 24.7347 48.2124 25.2552C48.2124 25.7758 48.35 26.2871 48.6112 26.7373C48.8725 27.1875 49.2481 27.5607 49.7 27.8191C50.152 28.0774 50.6641 28.2116 51.1847 28.2083C51.7052 28.2049 52.2156 28.064 52.6641 27.7998C52.2159 27.5431 51.8433 27.1726 51.5841 26.7259C51.3248 26.2791 51.188 25.7718 51.1876 25.2552Z" fill="#BEC3D2"/>
<path d="M51.1875 31.1614C49.621 31.1614 48.1188 30.5392 47.0111 29.4315C45.9035 28.3239 45.2813 26.8216 45.2812 25.2552C45.2812 23.6888 45.9035 22.1865 47.0111 21.0789C48.1188 19.9713 49.621 19.349 51.1875 19.349C52.7539 19.349 54.2562 19.9713 55.3638 21.0789C56.4714 22.1865 57.0937 23.6888 57.0937 25.2552C57.0937 26.8216 56.4714 28.3239 55.3638 29.4315C54.2562 30.5392 52.7539 31.1614 51.1875 31.1614ZM51.1875 22.3021C50.6034 22.3021 50.0324 22.4753 49.5468 22.7998C49.0612 23.1243 48.6827 23.5855 48.4591 24.1251C48.2356 24.6647 48.1772 25.2585 48.2911 25.8313C48.405 26.4042 48.6863 26.9304 49.0993 27.3434C49.5123 27.7564 50.0385 28.0376 50.6113 28.1516C51.1842 28.2655 51.778 28.207 52.3176 27.9835C52.8572 27.76 53.3184 27.3815 53.6429 26.8959C53.9674 26.4102 54.1406 25.8393 54.1406 25.2552C54.1406 24.472 53.8294 23.7209 53.2756 23.167C52.7218 22.6132 51.9707 22.3021 51.1875 22.3021Z" fill="#707789"/>
<path d="M61.0312 13.4427C61.0312 13.4427 62.0156 13.4427 62.0156 15.4114V16.3958H60.0469C59.5252 16.3942 59.0253 16.1863 58.6565 15.8175C58.2876 15.4486 58.0797 14.9487 58.0781 14.4271V12.8029C59.0231 12.9997 60.0075 13.2163 61.0312 13.4427Z" fill="#96E8FF"/>
<path d="M6.89108 14.4271V16.3958H1.96924V13.4427C1.96924 13.4427 1.96924 12.4584 3.93797 12.4584H5.90671C5.90671 12.4584 6.89108 12.4584 6.89108 14.4271Z" fill="#FF636E"/>
<path d="M15.7504 4.5835V10.4897H8.85986C8.85986 10.4897 9.84423 6.55223 12.7973 4.5835H15.7504Z" fill="#19CFFC"/>
<path d="M15.7502 4.5835H22.6408V10.4897H15.7502V4.5835Z" fill="#80DBFF"/>
<path d="M36.422 10.4897H22.6409V4.5835H28.5471L36.422 10.4897Z" fill="#96E8FF"/>
<path d="M46.2658 10.4895H41.3439L33.469 4.58333H39.3752L39.454 4.46521C41.997 6.14241 44.2903 8.17058 46.2658 10.4895Z" fill="#96E8FF"/>
<path d="M28.5472 4.58348H12.7973C9.84418 6.55221 8.85982 10.4897 8.85982 10.4897H36.4221L28.5472 4.58348ZM34.4534 1.63037C36.1982 2.4307 37.8712 3.37916 39.454 4.46535L39.3752 4.58348H33.469L41.344 10.4897H46.2658C46.2658 10.4897 50.8825 11.2575 58.0782 12.803V14.4272C58.0798 14.9488 58.2877 15.4487 58.6566 15.8175C59.0255 16.1864 59.5253 16.3943 60.047 16.3959H62.0157V21.3177H55.5779C55.0264 20.6986 54.35 20.203 53.5934 19.8637C52.8368 19.5245 52.0169 19.3491 51.1877 19.3491C50.3584 19.3491 49.5386 19.5245 48.7819 19.8637C48.0253 20.203 47.349 20.6986 46.7974 21.3177H16.2032C15.6516 20.6986 14.9753 20.203 14.2187 19.8637C13.462 19.5245 12.6422 19.3491 11.8129 19.3491C10.9837 19.3491 10.1638 19.5245 9.40718 19.8637C8.65054 20.203 7.97422 20.6986 7.42264 21.3177H1.96924V16.3959H6.89108V14.4272C6.89108 12.4584 5.90671 12.4584 5.90671 12.4584H3.93797C3.93797 12.4584 6.89108 1.63037 11.8129 1.63037H34.4534Z" fill="#F5CD62"/>
<path d="M62.0157 21.3177V23.2865C62.0141 23.8081 61.8062 24.308 61.4373 24.6769C61.0684 25.0457 60.5686 25.2537 60.0469 25.2552H57.0938C57.097 23.7996 56.5564 22.3954 55.5779 21.3177H62.0157Z" fill="#AFB4C8"/>
<path d="M16.2031 21.3177H46.7973C45.8188 22.3954 45.2782 23.7996 45.2814 25.2552H17.7191C17.7222 23.7996 17.1816 22.3954 16.2031 21.3177Z" fill="#AFB4C8"/>
<path d="M1.96921 21.3176H7.42261C6.44414 22.3953 5.90349 23.7995 5.90669 25.2551H1.96921C1.83917 25.2579 1.70991 25.2344 1.5892 25.1859C1.4685 25.1374 1.35885 25.065 1.26688 24.9731C1.1749 24.8811 1.1025 24.7714 1.05403 24.6507C1.00556 24.53 0.982025 24.4008 0.984846 24.2707V22.302L1.96921 21.3176Z" fill="#AFB4C8"/>
<path d="M58.3529 15.4115H6.89108V16.3959H1.96924V21.3177H7.42264C7.97422 20.6985 8.65054 20.203 9.40718 19.8637C10.1638 19.5244 10.9837 19.349 11.8129 19.349C12.6422 19.349 13.462 19.5244 14.2187 19.8637C14.9753 20.203 15.6516 20.6985 16.2032 21.3177H46.7974C47.349 20.6985 48.0253 20.203 48.7819 19.8637C49.5386 19.5244 50.3584 19.349 51.1877 19.349C52.0169 19.349 52.8368 19.5244 53.5934 19.8637C54.35 20.203 55.0264 20.6985 55.5779 21.3177H62.0157V16.3959H60.047C59.7032 16.394 59.366 16.3021 59.0688 16.1294C58.7716 15.9567 58.5247 15.7092 58.3529 15.4115Z" fill="#FFB13B"/>
<path d="M61.2281 12.4781C53.6721 10.8046 48.1971 9.82519 46.7845 9.58008C43.4567 5.83483 39.39 2.81851 34.8402 0.720765C34.7177 0.66972 34.586 0.644261 34.4533 0.645953H11.8129C6.89101 0.645953 3.98417 8.90185 3.18486 11.5213C1.01236 11.8146 0.9848 13.3699 0.9848 13.4427V20.9102L0.288851 21.6061C0.104234 21.7907 0.000487249 22.041 0.000431497 22.3021V24.2708C-0.00507045 24.5308 0.0420928 24.7893 0.139083 25.0307C0.236074 25.272 0.380887 25.4912 0.564809 25.6751C0.748731 25.8591 0.96796 26.0039 1.2093 26.1009C1.45065 26.1979 1.70912 26.245 1.96917 26.2395H5.00102C5.23639 27.8784 6.0547 29.3774 7.30587 30.4617C8.55704 31.5461 10.1572 32.143 11.8129 32.143C13.4685 32.143 15.0687 31.5461 16.3198 30.4617C17.571 29.3774 18.3893 27.8784 18.6247 26.2395H44.3758C44.6111 27.8784 45.4294 29.3774 46.6806 30.4617C47.9318 31.5461 49.5319 32.143 51.1876 32.143C52.8432 32.143 54.4434 31.5461 55.6946 30.4617C56.9457 29.3774 57.764 27.8784 57.9994 26.2395H60.0469C60.8301 26.2395 61.5812 25.9284 62.1351 25.3746C62.6889 24.8208 63 24.0696 63 23.2864V15.4115C63 13.0175 61.7302 12.5637 61.2281 12.4781ZM60.8452 14.4094C61.0002 14.7193 61.0647 15.0666 61.0313 15.4115H60.0469C59.7858 15.4115 59.5354 15.3078 59.3508 15.1232C59.1662 14.9386 59.0625 14.6882 59.0625 14.4271V14.0186C59.6344 14.1426 60.2182 14.2706 60.8177 14.4035L60.8452 14.4094ZM44.0381 9.50527H41.6756L36.4221 5.56779H39.321C41.0123 6.7309 42.5915 8.04909 44.0381 9.50527ZM11.8129 2.61469H34.2417C34.5478 2.75545 35.2398 3.08916 36.1582 3.59906H33.469C33.2624 3.59906 33.061 3.66406 32.8934 3.78486C32.7258 3.90567 32.6004 4.07614 32.5351 4.27214C32.4698 4.46814 32.4678 4.67973 32.5294 4.87693C32.591 5.07414 32.7131 5.24696 32.8783 5.37092L40.7533 11.2771C40.9237 11.4049 41.1309 11.474 41.3439 11.474H46.1831C46.7983 11.5783 50.9405 12.294 57.0938 13.5963V14.4271C57.0938 15.2103 57.4049 15.9615 57.9587 16.5153C58.5126 17.0691 59.2637 17.3802 60.0469 17.3802H61.0313V20.3333H56.0011C54.7167 19.0716 52.9881 18.3646 51.1876 18.3646C49.387 18.3646 47.6585 19.0716 46.374 20.3333H16.6264C15.3419 19.0716 13.6134 18.3646 11.8129 18.3646C10.0123 18.3646 8.28376 19.0716 6.99929 20.3333H2.95354V17.3802H6.89101C7.15208 17.3802 7.40246 17.2765 7.58706 17.0919C7.77167 16.9073 7.87538 16.6569 7.87538 16.3958V14.4271C7.87538 11.5075 5.98736 11.474 5.90664 11.474H5.27172C6.34665 8.27579 8.85975 2.61469 11.8129 2.61469ZM18.0291 22.3021H44.9713C44.6745 22.9245 44.4737 23.5882 44.3758 24.2708H18.6247C18.5267 23.5882 18.3259 22.9245 18.0291 22.3021ZM3.9379 13.4427H5.73339C5.87516 13.7504 5.93485 14.0895 5.90664 14.4271V15.4115H2.95354V13.616C3.2612 13.4742 3.60033 13.4145 3.9379 13.4427ZM1.96917 22.7096L2.3767 22.3021H5.59657C5.30149 22.9247 5.10236 23.5885 5.00594 24.2708H1.96917V22.7096ZM11.8129 30.177C10.8394 30.177 9.88782 29.8883 9.07842 29.3475C8.26903 28.8067 7.63819 28.038 7.26566 27.1387C6.89314 26.2393 6.79567 25.2497 6.98558 24.295C7.17549 23.3402 7.64425 22.4632 8.33258 21.7749C9.02092 21.0866 9.8979 20.6178 10.8526 20.4279C11.8074 20.238 12.797 20.3355 13.6964 20.708C14.5957 21.0805 15.3644 21.7113 15.9052 22.5207C16.446 23.3301 16.7347 24.2817 16.7347 25.2552C16.7331 26.56 16.2141 27.811 15.2914 28.7337C14.3687 29.6564 13.1177 30.1754 11.8129 30.177ZM51.1876 30.177C50.2141 30.177 49.2626 29.8883 48.4532 29.3475C47.6438 28.8067 47.0129 28.038 46.6404 27.1387C46.2679 26.2393 46.1704 25.2497 46.3603 24.295C46.5502 23.3402 47.019 22.4632 47.7073 21.7749C48.3956 21.0866 49.2726 20.6178 50.2274 20.4279C51.1821 20.238 52.1717 20.3355 53.0711 20.708C53.9704 21.0805 54.7391 21.7113 55.2799 22.5207C55.8208 23.3301 56.1094 24.2817 56.1094 25.2552C56.1079 26.56 55.5888 27.811 54.6661 28.7337C53.7434 29.6564 52.4925 30.1754 51.1876 30.177ZM60.0469 24.2708H57.9994C57.9014 23.5882 57.7006 22.9245 57.4039 22.3021H61.0313V23.2864C61.0313 23.5475 60.9276 23.7979 60.743 23.9825C60.5583 24.1671 60.308 24.2708 60.0469 24.2708Z" fill="black"/>
<path d="M11.813 21.3176C11.0342 21.3176 10.2729 21.5486 9.62542 21.9812C8.97791 22.4139 8.47323 23.0288 8.17521 23.7483C7.87719 24.4678 7.79922 25.2595 7.95115 26.0233C8.10308 26.7871 8.47808 27.4886 9.02875 28.0393C9.57941 28.59 10.281 28.965 11.0448 29.1169C11.8086 29.2688 12.6003 29.1909 13.3198 28.8929C14.0392 28.5948 14.6542 28.0902 15.0869 27.4426C15.5195 26.7951 15.7504 26.0339 15.7504 25.2551C15.7504 24.2108 15.3356 23.2093 14.5972 22.4709C13.8588 21.7325 12.8572 21.3176 11.813 21.3176ZM11.813 27.2238C11.4236 27.2238 11.0429 27.1084 10.7192 26.892C10.3954 26.6757 10.1431 26.3682 9.99409 26.0085C9.84508 25.6488 9.80609 25.2529 9.88206 24.871C9.95802 24.4891 10.1455 24.1383 10.4209 23.863C10.6962 23.5877 11.047 23.4002 11.4289 23.3242C11.8108 23.2482 12.2066 23.2872 12.5664 23.4362C12.9261 23.5852 13.2336 23.8376 13.4499 24.1613C13.6662 24.4851 13.7817 24.8657 13.7817 25.2551C13.7817 25.7772 13.5743 26.278 13.2051 26.6472C12.8359 27.0164 12.3351 27.2238 11.813 27.2238Z" fill="black"/>
<path d="M51.1877 21.3176C50.409 21.3176 49.6477 21.5486 49.0002 21.9812C48.3527 22.4139 47.848 23.0288 47.55 23.7483C47.252 24.4678 47.174 25.2595 47.3259 26.0233C47.4778 26.7871 47.8528 27.4886 48.4035 28.0393C48.9542 28.59 49.6558 28.965 50.4196 29.1169C51.1834 29.2688 51.975 29.1909 52.6945 28.8929C53.414 28.5948 54.029 28.0902 54.4616 27.4426C54.8943 26.7951 55.1252 26.0339 55.1252 25.2551C55.1252 24.2108 54.7104 23.2093 53.9719 22.4709C53.2335 21.7325 52.232 21.3176 51.1877 21.3176ZM51.1877 27.2238C50.7983 27.2238 50.4177 27.1084 50.0939 26.892C49.7702 26.6757 49.5179 26.3682 49.3688 26.0085C49.2198 25.6488 49.1808 25.2529 49.2568 24.871C49.3328 24.4891 49.5203 24.1383 49.7956 23.863C50.0709 23.5877 50.4217 23.4002 50.8036 23.3242C51.1855 23.2482 51.5814 23.2872 51.9411 23.4362C52.3009 23.5852 52.6083 23.8376 52.8247 24.1613C53.041 24.4851 53.1565 24.8657 53.1565 25.2551C53.1565 25.7772 52.949 26.278 52.5798 26.6472C52.2106 27.0164 51.7099 27.2238 51.1877 27.2238Z" fill="black"/>
<path d="M8.85983 11.4739H36.4221C36.6287 11.4739 36.8301 11.4089 36.9977 11.2881C37.1653 11.1673 37.2907 10.9969 37.356 10.8009C37.4213 10.6049 37.4233 10.3933 37.3617 10.1961C37.3001 9.99887 37.178 9.82604 37.0128 9.70208L29.1378 3.79587C28.9674 3.66808 28.7602 3.599 28.5472 3.599H12.7973C12.6029 3.59931 12.4129 3.65682 12.251 3.76437C9.0193 5.91915 7.94929 10.0752 7.90499 10.2504C7.86863 10.3955 7.86584 10.547 7.89683 10.6934C7.92781 10.8398 7.99176 10.9772 8.08382 11.0952C8.17587 11.2131 8.29361 11.3086 8.42807 11.3742C8.56254 11.4398 8.7102 11.4739 8.85983 11.4739ZM16.7348 9.50521V5.56774H21.6566V9.50521H16.7348ZM33.469 9.50521H23.6254V5.56774H28.2194L33.469 9.50521ZM13.1074 5.56774H14.766V9.50521H10.2379C10.8332 7.96414 11.8227 6.60638 13.1074 5.56774Z" fill="black"/>
<path d="M9.84424 14.4271H11.813V16.3959H9.84424V14.4271Z" fill="black"/>
<path d="M13.7817 14.4271H46.2659V16.3959H13.7817V14.4271Z" fill="black"/>
</svg>
