<svg width="43" height="32" viewBox="0 0 43 32" fill="none" xmlns="http://www.w3.org/2000/svg">
<path d="M28.4968 11.6529V31.4107H1.99341V11.6529C1.99341 10.5049 2.92405 9.57434 4.07195 9.57434H26.4184C27.5663 9.57426 28.4968 10.5049 28.4968 11.6529Z" fill="#FFC000"/>
<path opacity="0.15" d="M28.497 11.6536V31.4114H21.9213V11.6536C21.9213 10.5061 20.9902 9.57507 19.8428 9.57507H26.4184C27.5659 9.57499 28.497 10.5061 28.497 11.6536Z" fill="black"/>
<path d="M4.90649 17.4558H25.5838V31.4107H4.90649V17.4558Z" fill="white"/>
<path d="M4.90649 17.4558H25.5838V22.6483H4.90649V17.4558Z" fill="#FCE270"/>
<path opacity="0.15" d="M21.9214 17.4565H25.584V31.4114H21.9214V17.4565Z" fill="black"/>
<path d="M40.6282 17.2397V31.4107H28.4968V12.4951L39.0255 15.1776C39.9683 15.4178 40.6282 16.2668 40.6282 17.2397Z" fill="white"/>
<path d="M38.0861 19.8666V21.8138C38.0861 22.2748 37.7124 22.6484 37.2515 22.6484H31.8736C31.4127 22.6484 31.0391 22.2748 31.0391 21.8138V19.8666C31.0391 19.4057 31.4127 19.0321 31.8736 19.0321H37.2515C37.7124 19.0321 38.0861 19.4057 38.0861 19.8666Z" fill="#5899FE"/>
<path opacity="0.15" d="M40.6282 17.2402V31.4114H35.0648V17.2402C35.0648 16.2666 34.4042 15.4166 33.4615 15.1771L28.4969 13.9137V12.4958L39.0249 15.1771C39.9676 15.4166 40.6282 16.2666 40.6282 17.2402Z" fill="black"/>
<path d="M10.9944 3.45175L19.5609 3.43165L19.5603 3.43139C20.0957 2.22377 21.3036 1.38076 22.7109 1.37745C24.1182 1.37414 25.33 2.21146 25.8711 3.41655L25.8722 3.4168L24.418 3.42019C24.1859 3.4207 23.9673 3.52972 23.8272 3.71483L23.2783 4.43991C23.1039 4.67041 23.1046 4.98888 23.2802 5.21853L23.7975 5.89526C23.9402 6.08189 24.1627 6.19006 24.3976 6.18709L25.9046 6.16766C25.3834 7.40846 24.1584 8.28039 22.7272 8.2837C21.3198 8.28701 20.108 7.44969 19.5669 6.24461L19.5676 6.24435L15.5599 6.25377L11.001 6.26446L10.9238 6.26471C10.3883 7.47251 9.18044 8.3156 7.77303 8.31891C6.34169 8.3223 5.11269 7.45605 4.58569 6.2178L6.05911 6.22985C6.31523 6.23197 6.55726 6.11286 6.71183 5.90866L7.21906 5.23855C7.3855 5.01866 7.38483 4.71469 7.21728 4.49556L6.67162 3.78168C6.5179 3.58062 6.27909 3.46287 6.02594 3.46346L4.60504 3.46677L4.60614 3.46651C5.14162 2.25889 6.3495 1.41588 7.75674 1.41257C9.16416 1.40926 10.376 2.24667 10.9171 3.45192" fill="#DBD0D0"/>
<path d="M11.5825 28.431H13.7428V31.4108H11.5825V28.431Z" fill="#DBD0D0"/>
<path d="M16.7476 28.431H18.9079V31.4108H16.7476V28.431Z" fill="#DBD0D0"/>
<path d="M17.8238 25.0023L18.4358 26.7755H12.0542L12.6662 25.0023C12.8795 24.3843 13.4613 23.9696 14.1151 23.9696H16.3749C17.0288 23.9696 17.6106 24.3844 17.8238 25.0023Z" fill="#5899FE"/>
<path opacity="0.15" d="M18.4364 26.7753H16.9335L16.3231 25.002C16.1068 24.3839 15.5272 23.9705 14.8743 23.9705H16.3733C17.0301 23.9705 17.6096 24.3839 17.8221 25.002L18.4364 26.7753Z" fill="black"/>
<path d="M19.6029 28.2281C19.6029 29.0304 18.9526 29.6808 18.1503 29.6808H12.3398C11.5376 29.6808 10.8872 29.0304 10.8872 28.2281C10.8872 27.4259 11.5376 26.7755 12.3398 26.7755H18.1503C18.9526 26.7755 19.6029 27.4259 19.6029 28.2281Z" fill="#FCE270"/>
<path opacity="0.15" d="M19.6031 28.2279C19.6031 29.0315 18.9541 29.6806 18.1505 29.6806H16.3733C17.1769 29.6806 17.8259 29.0315 17.8259 28.2279C17.8259 27.4243 17.1768 26.7753 16.3733 26.7753H18.1505C18.9541 26.7752 19.6031 27.4243 19.6031 28.2279Z" fill="black"/>
<path d="M14.7005 21.277H15.7901C16.0568 21.277 16.2731 21.0608 16.2731 20.794C16.2731 20.5272 16.0569 20.311 15.7901 20.311H14.7005C14.4338 20.311 14.2175 20.5272 14.2175 20.794C14.2175 21.0608 14.4338 21.277 14.7005 21.277Z" fill="#520001"/>
<path d="M31.8738 23.1314H37.2517C37.978 23.1314 38.5692 22.5402 38.5692 21.8139V19.8667C38.5692 19.1404 37.978 18.5492 37.2517 18.5492H31.8738C31.1475 18.5492 30.5563 19.1404 30.5563 19.8667V21.8139C30.5563 22.5402 31.1475 23.1314 31.8738 23.1314ZM31.5221 19.8667C31.5221 19.6727 31.6798 19.515 31.8738 19.515H37.2517C37.4456 19.515 37.6034 19.6727 37.6034 19.8667V21.8139C37.6034 22.0078 37.4456 22.1655 37.2517 22.1655H31.8738C31.6798 22.1655 31.5221 22.0078 31.5221 21.8139V19.8667Z" fill="#520001"/>
<path d="M12.6627 28.7112H13.2588C13.5255 28.7112 13.7418 28.495 13.7418 28.2282C13.7418 27.9614 13.5256 27.7452 13.2588 27.7452H12.6627C12.3959 27.7452 12.1797 27.9614 12.1797 28.2282C12.1797 28.495 12.3958 28.7112 12.6627 28.7112Z" fill="#520001"/>
<path d="M17.2317 28.7112H17.8275C18.0942 28.7112 18.3104 28.495 18.3104 28.2282C18.3104 27.9614 18.0943 27.7452 17.8275 27.7452H17.2317C16.965 27.7452 16.7488 27.9614 16.7488 28.2282C16.7488 28.495 16.965 28.7112 17.2317 28.7112Z" fill="#520001"/>
<path d="M41.9346 31.8944C42.2013 31.8944 42.4175 31.6782 42.4175 31.4114C42.4175 31.1446 42.2014 30.9285 41.9346 30.9285H41.1113V17.2396C41.1113 16.0447 40.3028 15.0045 39.1448 14.7098L28.9798 12.12V11.653C28.9798 10.2408 27.8306 9.0916 26.4184 9.0916H19.2053V6.72835L19.2687 6.72818C19.9565 7.97703 21.2774 8.76668 22.7187 8.76668H22.7281C24.3146 8.76294 25.7362 7.81593 26.3497 6.35465C26.4127 6.20449 26.3961 6.03244 26.3048 5.89773C26.215 5.76419 26.0648 5.68454 25.9045 5.68454C25.9022 5.68454 25.9003 5.68454 25.898 5.68454L24.3915 5.70413C24.3108 5.70753 24.2308 5.6668 24.181 5.60224L23.6637 4.92535C23.6204 4.86834 23.6199 4.78876 23.6637 4.73107L24.2116 4.00667C24.261 3.94177 24.3388 3.90325 24.4191 3.90291L25.8724 3.89952C26.0361 3.89918 26.1882 3.81579 26.2769 3.67844C26.366 3.54109 26.3788 3.36794 26.312 3.21889C25.6774 1.80596 24.2678 0.894409 22.7191 0.894409C22.716 0.894409 22.7126 0.894409 22.7097 0.894409C21.2642 0.897803 19.9426 1.69466 19.2601 2.94954L11.2154 2.96837C10.5276 1.71951 9.20672 0.929446 7.76512 0.929446C7.76207 0.929446 7.75867 0.929446 7.7557 0.929446C6.21332 0.933179 4.8121 1.84023 4.17745 3.24298C4.13028 3.33274 4.11145 3.43802 4.12875 3.54483C4.16684 3.77838 4.36875 3.94966 4.60527 3.94966H4.60637L6.02762 3.94626H6.02838C6.1295 3.94626 6.22647 3.9942 6.28797 4.07454L6.83355 4.78834C6.86901 4.83508 6.86935 4.9004 6.83431 4.94681L6.32649 5.61726C6.26498 5.69836 6.16802 5.74663 6.06613 5.74663C6.06537 5.74663 6.06426 5.74663 6.06308 5.74663L4.58941 5.73459C4.5883 5.73459 4.58712 5.73459 4.58567 5.73459C4.42423 5.73459 4.27365 5.81535 4.18389 5.94964C4.09372 6.08513 4.07751 6.25675 4.14122 6.40657C4.76111 7.86251 6.18235 8.80163 7.76478 8.80163H7.7742C9.21996 8.79824 10.5413 8.00138 11.2242 6.74692L11.2849 6.74675V9.09142H4.07208C2.65983 9.09142 1.51066 10.2407 1.51066 11.6529V30.9284H0.482966C0.216245 30.9284 0 31.1446 0 31.4114C0 31.6782 0.21616 31.8943 0.482966 31.8943H41.9346V31.8944ZM5.38923 23.1314H25.1009V30.9277H19.3906V29.7018C19.812 29.3465 20.086 28.8214 20.086 28.2283C20.086 27.3988 19.5591 26.6955 18.8245 26.4206L18.2806 24.8447C17.9999 24.0324 17.2343 23.4868 16.3753 23.4868H14.1153C13.2558 23.4868 12.4903 24.0327 12.21 24.8447L11.6662 26.4204C10.9313 26.6952 10.4043 27.3987 10.4043 28.2283C10.4043 28.8214 10.6781 29.3465 11.0996 29.7018V30.9277H5.38923V23.1314ZM25.1009 22.1655H5.38923V17.9387H25.1009V22.1655ZM12.3398 27.2586H18.1505C18.6851 27.2586 19.1201 27.6936 19.1201 28.2283C19.1201 28.7629 18.6851 29.1979 18.1505 29.1979H12.3398C11.8051 29.1979 11.3701 28.7629 11.3701 28.2283C11.3701 27.6936 11.8051 27.2586 12.3398 27.2586ZM12.7321 26.2927L13.123 25.1598C13.269 24.7368 13.6678 24.4528 14.1153 24.4528H16.3753C16.8228 24.4528 17.2215 24.7372 17.3676 25.1602L17.7584 26.2928H12.7321V26.2927ZM16.2643 30.1638V30.9278H14.2258V30.1638H16.2643ZM17.2302 30.1638C18.2363 30.1504 18.0624 30.1881 18.4246 30.136V30.9278H17.2302V30.1638ZM12.0654 30.136C12.4316 30.1887 12.236 30.1501 13.2599 30.1638V30.9278H12.0654V30.136ZM38.9065 15.6455C39.6361 15.8316 40.1455 16.4869 40.1455 17.2396V30.9278H28.9798V13.1165L38.9065 15.6455ZM10.9215 5.78193C10.7314 5.78269 10.5593 5.8951 10.4823 6.06901C10.0077 7.13937 8.94373 7.83324 7.77182 7.83587C7.76953 7.83587 7.7669 7.83587 7.76461 7.83587C6.83915 7.83587 5.98681 7.41025 5.43216 6.70739L6.0551 6.71265C6.45162 6.71078 6.85153 6.5244 7.09645 6.20025L7.60427 5.5298C7.90043 5.1382 7.89891 4.5922 7.60088 4.20213L7.05531 3.48833C6.81234 3.17028 6.42863 2.9805 6.02872 2.9805C6.02762 2.9805 6.02609 2.9805 6.02498 2.9805L5.46736 2.98203C6.02202 2.30708 6.85807 1.89767 7.75791 1.89546H7.76512C8.93398 1.89546 9.99798 2.58331 10.4767 3.64985C10.5627 3.84115 10.751 3.94906 10.9566 3.9332C10.9694 3.9343 10.9856 3.92904 10.9955 3.93473L19.5623 3.91471C19.7622 3.91437 19.9381 3.79093 20.0098 3.60913C20.4882 2.54895 21.5469 1.86306 22.712 1.86034H22.7192C23.616 1.86034 24.4513 2.26551 25.0082 2.93562L24.4166 2.93715C24.0367 2.93826 23.6726 3.1198 23.442 3.42351L22.8938 4.14826C22.5894 4.55004 22.5901 5.11071 22.8965 5.51181L23.4137 6.18905C23.6484 6.49505 24.0166 6.65768 24.4041 6.67006L25.0602 6.66141C24.5078 7.36885 23.6544 7.79854 22.7259 7.80083C22.7232 7.80083 22.7209 7.80083 22.7187 7.80083C21.5498 7.80083 20.4866 7.11299 20.0082 6.04678C19.93 5.87287 19.7577 5.76453 19.5664 5.76157L11.7709 5.77997C11.7698 5.77997 11.7688 5.7793 11.7677 5.7793C11.7665 5.7793 11.7657 5.77997 11.7645 5.77997L10.9215 5.78193ZM12.2507 6.74463L18.2394 6.73055V9.09151H12.2507V6.74463ZM2.47659 11.653C2.47659 10.7732 3.19234 10.0574 4.07217 10.0574H26.4185C27.2983 10.0574 28.0141 10.7732 28.0141 11.653V12.4952V30.9278H26.0668C26.0668 28.1611 26.0668 21.8824 26.0668 17.4558C26.0668 17.1891 25.8507 16.9729 25.5839 16.9729H4.90635C4.63963 16.9729 4.42338 17.189 4.42338 17.4558V30.9278H2.47659V11.653Z" fill="#520001"/>
</svg>
