<svg width="85" height="61" viewBox="0 0 85 61" fill="none" xmlns="http://www.w3.org/2000/svg">
<path d="M16.2497 0.190365C10.129 1.37701 4.85496 5.42241 2.10329 11.032C0.568702 14.1784 -0.136854 17.4867 0.021896 20.8848C0.28648 26.1708 2.26204 30.6837 5.91329 34.2975C8.38274 36.7607 10.9404 38.289 14.0801 39.206C15.8793 39.7274 15.8616 39.6554 14.6269 42.2625C12.9688 45.7325 10.7111 49.2206 7.94176 52.6007C6.16023 54.7762 5.75454 55.837 6.14259 57.4732C6.58357 59.361 8.24162 60.7095 10.129 60.7095C11.8047 60.7095 16.6907 58.8036 20.2184 56.754C31.2428 50.3712 37.6633 40.051 39.2332 26.2427C39.6212 22.8805 39.4978 17.7024 38.9862 15.7606C37.2929 9.28801 33.2536 4.21778 27.7502 1.62873C25.3337 0.496017 23.5169 0.100468 20.3419 0.0105705C18.4369 -0.0253868 17.114 0.0285492 16.2497 0.190365ZM23.023 6.05169C25.5983 6.68098 27.9443 8.10136 29.8669 10.2229C31.3486 11.8591 32.3893 13.657 33.1478 15.9045L33.7475 17.6485V21.4242C33.7475 26.0449 33.3947 28.6879 32.2305 32.8052C29.7964 41.3995 24.1696 48.3575 16.5143 52.2771C15.5441 52.7625 14.8209 53.0682 14.9091 52.9423C14.9797 52.8165 15.6676 51.7736 16.4261 50.623C17.9077 48.3396 19.9186 44.5099 20.7652 42.3344C21.7354 39.9072 21.4532 37.7676 19.9539 36.0775C19.019 35.0167 18.0136 34.4594 16.3379 34.0278C12.034 32.9491 8.13579 29.4251 6.56593 25.1819C4.73148 20.2016 5.63107 14.8796 9.01774 10.7084C10.764 8.56883 13.692 6.71694 16.4261 6.03371C18.2252 5.58422 21.1533 5.58422 23.023 6.05169Z" fill="#FFC000"/>
<path d="M61.3421 0.349808C53.2354 2.09233 47.0008 8.68519 45.7115 16.9128C45.3583 19.1224 45.5702 23.2182 46.1354 25.3021C47.0715 28.7153 48.8376 31.7692 51.2926 34.2482C53.6593 36.6554 56.4322 38.3081 59.6113 39.2423C60.4591 39.4938 61.1655 39.7273 61.1832 39.7453C61.2892 39.8351 59.6996 43.2303 58.8695 44.7213C57.5979 47.0028 55.708 49.7693 53.8536 52.0687C51.9638 54.422 51.5575 55.2124 51.5399 56.5418C51.5399 57.6915 51.8225 58.446 52.6172 59.3622C53.3944 60.2424 54.3834 60.7095 55.5844 60.7095C57.6508 60.7095 64.0444 57.9789 67.7887 55.4999C72.3807 52.4459 76.3193 48.386 79.1275 43.7872C81.9887 39.1165 83.9845 32.9189 84.7616 26.3979C85.0795 23.811 85.0795 18.5475 84.7616 16.9667C83.0837 8.34387 76.8315 1.8049 68.7954 0.259987C66.8349 -0.11726 63.3556 -0.0813332 61.3421 0.349808ZM68.6011 6.09835C74.0409 7.49955 78.1738 12.2062 79.1982 18.1882C79.8516 21.9428 79.0745 28.7332 77.3967 33.9249C75.4362 40.0147 71.8155 45.2962 66.9939 49.0687C65.0334 50.6316 60.3707 53.434 60.3707 53.0747C60.3707 53.0208 60.7946 52.3561 61.3068 51.5837C63.2849 48.6914 65.8989 43.6974 66.623 41.4339C67.3648 39.1524 66.464 36.5476 64.4683 35.1285C64.0797 34.859 62.9494 34.3919 61.9426 34.1045C57.5625 32.8111 54.3834 30.1704 52.5113 26.2721C50.7628 22.6074 50.7098 17.9008 52.4053 14.1104C54.1891 10.1044 58.0394 6.9247 62.2076 6.00853C63.9031 5.63128 66.9586 5.66721 68.6011 6.09835Z" fill="#FFC000"/>
</svg>
