<svg width="15" height="10" viewBox="0 0 15 10" fill="none" xmlns="http://www.w3.org/2000/svg">
<path d="M14.0708 3.1926C14.0607 3.18076 14.0522 3.16922 14.0402 3.15768L13.5146 2.64102C13.9505 2.5403 14.4199 2.16831 14.4199 1.78666C14.4199 1.34202 13.814 1.18425 13.2969 1.18425C12.7562 1.18425 12.6935 1.56154 12.6871 1.82813L11.3308 0.496399C11.0553 0.218578 10.5327 0 10.1421 0H7.50061H4.85795C4.46761 0 3.94532 0.218578 3.66948 0.496399L2.31356 1.82813C2.30651 1.56154 2.24375 1.18425 1.70371 1.18425C1.18602 1.18425 0.580456 1.34202 0.580456 1.78666C0.580456 2.16831 1.05009 2.5403 1.48604 2.64102L0.960384 3.15768C0.948445 3.16922 0.940179 3.18076 0.92977 3.1926C0.367377 3.68214 0 4.59013 0 5.24898V7.20682C0 7.68202 0.183995 8.11325 0.481264 8.43472V9.19398C0.481264 9.63799 0.846192 10 1.295 10H2.27896C2.72777 10 3.0924 9.63861 3.0924 9.19398V8.99972H7.5H11.9079V9.19398C11.9079 9.63861 12.2722 10 12.7217 10H13.7053C14.1544 10 14.5187 9.63799 14.5187 9.19398V8.43472C14.8163 8.11325 15 7.68202 15 7.20682V5.24898C15.0006 4.59013 14.6332 3.68214 14.0708 3.1926ZM4.16758 1.08821C4.35831 0.926382 4.69171 0.80353 4.85795 0.80353H7.5H10.1427C10.3089 0.80353 10.6423 0.926382 10.833 1.08821L12.6114 2.84369H7.50061H2.38948L4.16758 1.08821ZM0.610152 4.95276C0.610152 4.47071 0.98059 4.07939 1.43797 4.07939C1.89505 4.07939 3.38875 4.9724 3.38875 5.45446C3.38875 5.93652 1.89505 5.82489 1.43797 5.82489C0.98059 5.82489 0.610152 5.43513 0.610152 4.95276ZM3.0927 8.14131H2.93504H2.77737L1.84209 8.14287C1.58248 8.06055 1.3994 7.96452 1.2699 7.86131C1.20438 7.80924 1.15418 7.75498 1.11499 7.70104C1.0755 7.64647 1.04672 7.59284 1.02804 7.53921C0.911707 7.20433 1.15203 6.89657 1.15203 6.89657H2.74829L3.81245 8.14069L3.0927 8.14131ZM9.79549 8.14194H7.50061H5.20512C4.72661 8.14194 4.33811 7.74625 4.33811 7.25921H7.5H10.6625C10.6625 7.74687 10.274 8.14194 9.79549 8.14194ZM9.99694 6.65679H7.50061H5.00367C4.48322 6.65679 4.06074 6.00324 4.06074 5.19722H7.5H10.9399C10.9399 6.00355 10.5174 6.65679 9.99694 6.65679ZM13.9729 7.53983C13.9539 7.59346 13.9251 7.6471 13.8856 7.70135C13.8467 7.75529 13.7965 7.80955 13.7307 7.86162C13.6015 7.96483 13.4181 8.06149 13.1585 8.14318L12.2232 8.14162H12.0656H11.9079H11.1875L12.2523 6.89751H13.8483C13.8483 6.89751 14.0889 7.20433 13.9729 7.53983ZM13.5626 5.82489C13.1059 5.82489 11.6122 5.93589 11.6122 5.45446C11.6122 4.97303 13.1059 4.07939 13.5626 4.07939C14.02 4.07939 14.3905 4.47071 14.3905 4.95276C14.3905 5.4345 14.02 5.82489 13.5626 5.82489Z" fill="#FFC000"/>
</svg>
