<svg width="12" height="10" viewBox="0 0 12 10" fill="none" xmlns="http://www.w3.org/2000/svg">
<path d="M6.0184 5.3665L5.68889 4.21338L5.35938 5.3665C5.46597 5.34498 5.57604 5.33317 5.68889 5.33317C5.80174 5.33317 5.91181 5.34498 6.0184 5.3665Z" fill="#FFC000"/>
<path d="M2.03711 5.33346H2.70734C2.7944 4.54952 3.18919 3.86141 3.76237 3.37817L3.3944 2.82617C2.64431 3.4332 2.12895 4.31914 2.03711 5.33346Z" fill="#FFC000"/>
<path d="M3.94873 2.45573L4.31913 3.01146C4.73137 2.79783 5.19317 2.66667 5.68875 2.66667C6.18432 2.66667 6.64613 2.79783 7.05837 3.01146L7.42877 2.45573C6.90906 2.17283 6.32095 2 5.68875 2C5.05654 2 4.46844 2.17283 3.94873 2.45573Z" fill="#FFC000"/>
<path d="M4.68896 7C4.68896 7.55139 5.13758 8 5.68896 8C6.24035 8 6.68896 7.55139 6.68896 7C6.68896 6.44861 6.24035 6 5.68896 6C5.13758 6 4.68896 6.44861 4.68896 7ZM6.0223 7.33333H5.35563V6.66667H6.0223V7.33333Z" fill="#FFC000"/>
<path d="M7.98312 2.82617L7.61523 3.37817C8.18832 3.86141 8.5832 4.54952 8.67018 5.33346H9.34049C9.24857 4.31914 8.7332 3.4332 7.98312 2.82617Z" fill="#FFC000"/>
<path d="M5.68889 0C2.56424 0 0 2.54201 0 5.66667C0 7.29167 0.721441 8.8408 1.94054 9.91667L2.03524 10H9.34254C9.3921 9.93333 11.3778 8.47422 11.3778 5.66667C11.3778 2.54201 8.81354 0 5.68889 0ZM3.35556 8H2.02222V7.33333H3.35556V8ZM9.35556 8H8.02222V7.33333H9.35556V8ZM10.0222 6H8.02222V5.66667C8.02222 4.53611 7.21328 3.59193 6.1441 3.37934L6.83446 5.7954C7.15382 6.09922 7.35556 6.52543 7.35556 7C7.35556 7.91892 6.60781 8.66667 5.68889 8.66667C4.76997 8.66667 4.02222 7.91892 4.02222 7C4.02222 6.52543 4.22396 6.09922 4.54332 5.7954L5.23368 3.37934C4.1645 3.59193 3.35556 4.53611 3.35556 5.66667V6H1.35556V5.66667C1.35556 3.27734 3.29957 1.33333 5.68889 1.33333C8.07821 1.33333 10.0222 3.27734 10.0222 5.66667V6Z" fill="#FFC000"/>
</svg>
