<svg width="13" height="11" viewBox="0 0 13 11" fill="none" xmlns="http://www.w3.org/2000/svg">
<path d="M12.9327 10.1111L10.3389 0.111084H8.71313L10.5942 10.1111H12.9327Z" fill="#FFC000"/>
<path d="M2.33849 10.1111L4.21953 0.111084H2.59383L0 10.1111H2.33849Z" fill="#FFC000"/>
<path d="M6.87883 3.05371H6.05375L5.97363 4.48718H6.95888L6.87883 3.05371Z" fill="#FFC000"/>
<path d="M6.71867 0.186768H6.21371L6.13367 1.62024H6.79874L6.71867 0.186768Z" fill="#FFC000"/>
<path d="M3.15863 10.1111L5.03441 0.117852L4.9983 0.111084H4.50392L2.62683 10.1111H3.15863Z" fill="#FFC000"/>
<path d="M10.3056 10.1111L8.42853 0.111084H7.93416L7.89807 0.117852L9.77386 10.1111H10.3056Z" fill="#FFC000"/>
<path d="M7.03879 5.92065H5.89359L5.8136 7.35402H7.11889L7.03879 5.92065Z" fill="#FFC000"/>
<path d="M7.26761 10.1112L7.1988 8.7876H5.73348L5.66467 10.1112H7.26761Z" fill="#FFC000"/>
</svg>
