<svg width="10" height="11" viewBox="0 0 10 11" fill="none" xmlns="http://www.w3.org/2000/svg">
<path d="M9.42067 4.20364H8.53851C8.49243 4.07856 8.44635 3.95348 8.3871 3.83498L9.00593 3.21615C9.23634 2.98573 9.23634 2.61707 9.00593 2.38666L8.0711 1.45183C7.84069 1.22142 7.47202 1.22142 7.24161 1.45183L6.62278 2.07066C6.50428 2.01141 6.3792 1.96533 6.25412 1.91924V1.03708C6.25412 0.714503 5.99078 0.451172 5.6682 0.451172H4.33838C4.0158 0.451172 3.75247 0.714503 3.75247 1.03708V1.91266C3.62739 1.95874 3.5023 2.00483 3.38381 2.06408L2.76498 1.44525C2.53456 1.21483 2.1659 1.21483 1.93548 1.44525L0.994075 2.38666C0.76366 2.61707 0.76366 2.98573 0.994075 3.21615L1.6129 3.83498C1.55365 3.95348 1.50757 4.07856 1.46149 4.20364H0.585912C0.263331 4.20364 0 4.46697 0 4.78955V6.11279C0 6.43537 0.263331 6.6987 0.585912 6.6987H1.46807C1.51415 6.82379 1.56024 6.94887 1.61949 7.06737L1.00066 7.68619C0.770244 7.91661 0.770244 8.28527 1.00066 8.51569L1.93548 9.45051C2.1659 9.68093 2.53456 9.68093 2.76498 9.45051L3.38381 8.83169C3.5023 8.89093 3.62739 8.93702 3.75247 8.9831V9.86526C3.75247 10.1878 4.0158 10.4512 4.33838 10.4512H5.66162C5.9842 10.4512 6.24753 10.1878 6.24753 9.86526V8.9831C6.37261 8.93702 6.4977 8.89093 6.6162 8.83169L7.23502 9.45051C7.46544 9.68093 7.8341 9.68093 8.06452 9.45051L8.99934 8.51569C9.22976 8.28527 9.22976 7.91661 8.99934 7.68619L8.38052 7.06737C8.43976 6.94887 8.48585 6.82379 8.53193 6.6987H9.41409C9.73667 6.6987 10 6.43537 10 6.11279V4.78955C10.0066 4.46697 9.74325 4.20364 9.42067 4.20364ZM5.00329 7.65986C3.78539 7.65986 2.79789 6.67237 2.79789 5.45446C2.79789 4.23656 3.78539 3.24907 5.00329 3.24907C6.2212 3.24907 7.20869 4.23656 7.20869 5.45446C7.20869 6.67237 6.2212 7.65986 5.00329 7.65986Z" fill="#FFC000"/>
<path d="M5.00331 6.67239C5.67594 6.67239 6.22121 6.12711 6.22121 5.45448C6.22121 4.78185 5.67594 4.23657 5.00331 4.23657C4.33068 4.23657 3.7854 4.78185 3.7854 5.45448C3.7854 6.12711 4.33068 6.67239 5.00331 6.67239Z" fill="#FFC000"/>
</svg>
