<svg width="20" height="20" viewBox="0 0 20 20" fill="none" xmlns="http://www.w3.org/2000/svg">
<path d="M20 19.3548V20H0V19.3548H5.16129H14.8387H20Z" fill="#FFC000"/>
<path d="M14.8388 15.4839C15.5504 15.4839 16.1292 16.0626 16.1292 16.7742C16.1292 17.4858 15.5504 18.0645 14.8388 18.0645C14.1272 18.0645 13.5485 17.4858 13.5485 16.7742C13.5485 16.0626 14.1272 15.4839 14.8388 15.4839ZM14.8388 17.4194C15.1946 17.4194 15.484 17.13 15.484 16.7742C15.484 16.4184 15.1946 16.129 14.8388 16.129C14.483 16.129 14.1937 16.4184 14.1937 16.7742C14.1937 17.13 14.483 17.4194 14.8388 17.4194Z" fill="#FFC000"/>
<path d="M2.6029 17.0968H0.967743C0.434195 17.0968 0 16.6626 0 16.129V12.9032C0 12.781 0.0690327 12.6694 0.178389 12.6145L2.6929 11.3574L5.29226 7.97806C5.71677 7.42613 6.38581 7.09677 7.08194 7.09677H8.3871V5.80645H4.83871C4.66032 5.80645 4.51613 5.66194 4.51613 5.48387V0.322581C4.51613 0.144516 4.66032 0 4.83871 0H15.1613C15.3397 0 15.4839 0.144516 15.4839 0.322581V5.48387C15.4839 5.66194 15.3397 5.80645 15.1613 5.80645H11.6129V7.19161C12.0681 7.32516 12.479 7.59677 12.7726 7.97806L15.3445 11.3226L18.47 11.9923C19.3568 12.1823 20 12.9777 20 13.8845V16.129C20 16.6626 19.5658 17.0968 19.0323 17.0968H17.3971C17.2374 18.3677 16.1523 19.3548 14.8387 19.3548C13.5252 19.3548 12.44 18.3677 12.2803 17.0968H7.71936C7.55968 18.3677 6.47452 19.3548 5.16097 19.3548C3.84742 19.3548 2.76258 18.3677 2.6029 17.0968ZM0.645163 15.1613H1.29032V12.78L0.645163 13.1026V15.1613ZM14.8387 0.645161H5.16129V5.16129H14.8387V0.645161ZM9.03226 5.80645V7.09677H10.9677V5.80645H9.03226ZM19.3535 13.871H18.7097V14.5161H19.3548V13.8845C19.3548 13.88 19.3535 13.8755 19.3535 13.871ZM19.3548 16.129V15.1613H18.3871C18.2087 15.1613 18.0645 15.0171 18.0645 14.8387V13.5484C18.0645 13.37 18.2087 13.2258 18.3871 13.2258H19.1694C18.9897 12.9258 18.6929 12.6997 18.3348 12.6229L15.0935 11.9284C15.019 11.9123 14.9523 11.8703 14.9055 11.8097L12.261 8.37161C11.9577 7.9771 11.48 7.74194 10.9826 7.74194H7.08194C6.58452 7.74194 6.10678 7.9771 5.80355 8.37161L3.15903 11.8097C3.12903 11.8484 3.09097 11.88 3.04742 11.9016L1.93548 12.4574V15.4839C1.93548 15.6623 1.79129 15.8065 1.6129 15.8065H0.645163V16.129C0.645163 16.3071 0.789679 16.4516 0.967743 16.4516H2.6029C2.76258 15.1806 3.84774 14.1935 5.16129 14.1935C6.47484 14.1935 7.56 15.1806 7.71968 16.4516H12.2803C12.44 15.1806 13.5252 14.1935 14.8387 14.1935C16.1523 14.1935 17.2374 15.1806 17.3971 16.4516H19.0323C19.2103 16.4516 19.3548 16.3071 19.3548 16.129ZM14.8387 18.7097C15.9061 18.7097 16.7742 17.8416 16.7742 16.7742C16.7742 15.7068 15.9061 14.8387 14.8387 14.8387C13.7713 14.8387 12.9032 15.7068 12.9032 16.7742C12.9032 17.8416 13.7713 18.7097 14.8387 18.7097ZM5.16129 18.7097C6.22871 18.7097 7.09678 17.8416 7.09678 16.7742C7.09678 15.7068 6.22871 14.8387 5.16129 14.8387C4.09387 14.8387 3.22581 15.7068 3.22581 16.7742C3.22581 17.8416 4.09387 18.7097 5.16129 18.7097Z" fill="#FFC000"/>
<path d="M5.16134 15.4839C5.87295 15.4839 6.45166 16.0626 6.45166 16.7742C6.45166 17.4858 5.87295 18.0645 5.16134 18.0645C4.44972 18.0645 3.87101 17.4858 3.87101 16.7742C3.87101 16.0626 4.44972 15.4839 5.16134 15.4839ZM5.16134 17.4194C5.51714 17.4194 5.8065 17.13 5.8065 16.7742C5.8065 16.4184 5.51714 16.129 5.16134 16.129C4.80553 16.129 4.51618 16.4184 4.51618 16.7742C4.51618 17.13 4.80553 17.4194 5.16134 17.4194Z" fill="#FFC000"/>
<path d="M13.5484 12.2581H4.51618C4.39586 12.2581 4.28553 12.1913 4.23005 12.0845C4.17424 11.9777 4.18295 11.8494 4.25166 11.7506L6.2207 8.93774C6.46231 8.5929 6.85747 8.3871 7.27812 8.3871H10.7865C11.2071 8.3871 11.602 8.5929 11.8433 8.93774L13.8123 11.7506C13.8813 11.8494 13.8897 11.9777 13.8339 12.0845C13.7791 12.1913 13.6688 12.2581 13.5484 12.2581ZM6.74973 9.30742L5.13586 11.6129H8.70973V9.03226H7.27812C7.06779 9.03226 6.87037 9.13516 6.74973 9.30742ZM11.3149 9.30742C11.1942 9.13516 10.9968 9.03226 10.7865 9.03226H9.35489V11.6129H12.9288L11.3149 9.30742Z" fill="#FFC000"/>
<path d="M10 12.9032H8.70968V13.5484H10V12.9032Z" fill="#FFC000"/>
<path d="M5.48389 12.9032H4.19356V13.5484H5.48389V12.9032Z" fill="#FFC000"/>
<path d="M6.85704 1.29L6.12898 1.29033C5.95059 1.29033 5.8064 1.43484 5.8064 1.61291V4.51613H6.45156V3.54839H6.77414C6.9522 3.54839 7.09672 3.69323 7.09672 3.87097V4.51613H7.74188V3.87097C7.74188 3.62226 7.64478 3.39742 7.49027 3.22581C7.64478 3.0542 7.74188 2.82936 7.74188 2.58065V1.93549C7.74188 1.74323 7.68414 1.58839 7.57059 1.47581C7.37898 1.28581 7.11285 1.28871 6.85704 1.29ZM6.45156 2.90323V1.93549L6.86188 1.93516C6.93446 1.93484 7.03607 1.93387 7.09672 1.94097V2.58065C7.09672 2.75839 6.9522 2.90323 6.77414 2.90323H6.45156Z" fill="#FFC000"/>
<path d="M8.06494 1.61291V4.19355C8.06494 4.37162 8.20913 4.51613 8.38752 4.51613H9.67784V3.87097H8.7101V3.22581H9.35526V2.58065H8.7101V1.93549H9.67784V1.29033H8.38752C8.20913 1.29033 8.06494 1.43484 8.06494 1.61291Z" fill="#FFC000"/>
<path d="M11.2903 2.8271L10.6113 1.46871C10.5445 1.33484 10.3926 1.26484 10.2487 1.29903C10.1029 1.33323 10 1.46323 10 1.61291V4.51613H10.6452V2.97936L11.3242 4.33774C11.3797 4.44903 11.4929 4.51613 11.6129 4.51613C11.6374 4.51613 11.6623 4.51323 11.6868 4.50742C11.8326 4.47323 11.9355 4.34323 11.9355 4.19355V1.29033H11.2903V2.8271Z" fill="#FFC000"/>
<path d="M12.2583 1.93549H12.9035V4.51613H13.5486V1.93549H14.1938V1.29033H12.2583V1.93549Z" fill="#FFC000"/>
</svg>
