<svg width="192" height="55" viewBox="0 0 192 55" fill="none" xmlns="http://www.w3.org/2000/svg">
<path fill-rule="evenodd" clip-rule="evenodd" d="M30.8543 50.5545C39.5423 50.5545 46.5884 51.5501 46.5884 52.7776C46.5884 54.0044 39.5423 55 30.8543 55C22.1655 55 15.1194 54.0044 15.1194 52.7776C15.1187 51.5494 22.1655 50.5545 30.8543 50.5545Z" fill="#E7E7E7"/>
<path fill-rule="evenodd" clip-rule="evenodd" d="M38.4141 5.90234C38.542 5.9621 38.6699 6.02399 38.7964 6.0873C38.6699 6.0247 38.542 5.96281 38.4141 5.90234Z" fill="#1B1B1B"/>
<path fill-rule="evenodd" clip-rule="evenodd" d="M37.2085 5.38852C37.6157 5.54502 38.0163 5.71575 38.4082 5.9C38.0156 5.71575 37.6157 5.54573 37.2085 5.38852Z" fill="#1B1B1B"/>
<path fill-rule="evenodd" clip-rule="evenodd" d="M8.30572 19.7396C8.38248 19.7275 8.45925 19.7168 8.53601 19.7068ZM8.07543 19.7794C8.14927 19.7652 8.22384 19.7524 8.29841 19.741ZM12.5752 19.6464H30.0939H31.9947H44.3761H51.6072H52.4596V19.694C57.2913 20.2292 61.1111 25.2603 61.1111 31.3367V39.5309C61.1111 41.4544 59.8317 43.0285 58.268 43.0285H56.1391V46.9829C56.1391 48.4759 54.8846 49.697 53.3508 49.697H49.5514C48.0183 49.697 46.7631 48.4759 46.7631 46.9829V43.0285H40.9722L40.1505 43.8283L30.6839 53.4287C27.7384 50.5132 24.7848 47.6077 21.8138 44.7164L20.0796 43.0285H14.3466V46.9829C14.3466 48.4759 13.0921 49.697 11.559 49.697H7.75961C6.22582 49.697 4.97203 48.4759 4.97203 46.9829V43.0285H2.84387C1.2801 43.0285 0 41.4544 0 39.5309V31.3367C0 25.5157 3.50549 20.6533 8.04765 19.7844L8.00671 19.7922C8.51481 14.9213 10.6861 10.1833 14.5198 6.45165C20.6396 0.49475 29.395 -1.33623 37.1363 0.955163V5.36004C35.0966 4.58581 32.8778 4.16026 30.5567 4.16026C21.3005 4.16098 13.6638 10.922 12.5752 19.6464Z" fill="#1B1B1B"/>
<path fill-rule="evenodd" clip-rule="evenodd" d="M13.7507 27.0137C16.7693 27.0137 19.2169 29.3962 19.2169 32.333C19.2169 35.2713 16.7693 37.6538 13.7507 37.6538C10.7335 37.6538 8.28589 35.2713 8.28589 32.333C8.28589 29.3962 10.7335 27.0137 13.7507 27.0137ZM47.3603 27.0137C50.3781 27.0137 52.8258 29.3962 52.8258 32.333C52.8258 35.2713 50.3781 37.6538 47.3603 37.6538C44.3424 37.6538 41.8948 35.2713 41.8948 32.333C41.8948 29.3962 44.3424 27.0137 47.3603 27.0137Z" fill="white"/>
<path fill-rule="evenodd" clip-rule="evenodd" d="M46.5336 6.45251C44.9384 4.89907 43.1633 3.62671 41.2743 2.63401C40.598 2.27891 39.9072 1.9594 39.2046 1.67618V6.29739C39.9254 6.67952 40.6163 7.10791 41.2743 7.57829C44.0487 9.56368 46.2207 12.3005 47.4738 15.4793C47.7318 16.1333 47.9504 16.805 48.1273 17.4939H52.6805C52.535 16.8164 52.3559 16.1439 52.1438 15.4793C51.0911 12.1767 49.221 9.06769 46.5336 6.45251Z" fill="white"/>
<path fill-rule="evenodd" clip-rule="evenodd" d="M39.614 10.7905C41.3788 10.7905 42.811 12.1838 42.811 13.9023C42.811 15.6209 41.3795 17.0135 39.614 17.0135C37.8484 17.0135 36.417 15.6209 36.417 13.9023C36.417 12.1845 37.8484 10.7905 39.614 10.7905Z" fill="white"/>
<path d="M66 20.0209V14.0519H89.5527V20.0209H66ZM74.261 43.4705V14.0519H81.2917V43.4705H74.261ZM90.8562 37.5868C90.8562 36.194 91.237 34.9576 91.9986 33.8774C92.7896 32.7973 93.976 31.9304 95.5579 31.2767C97.1691 30.6229 99.1904 30.2534 101.622 30.1681L105.577 30.0402V33.6643L102.061 33.8348C100.743 33.8917 99.703 34.0764 98.9414 34.3891C98.1797 34.6733 97.6231 35.0286 97.2716 35.455C96.9494 35.8813 96.7883 36.3503 96.7883 36.8619C96.7883 37.601 97.0373 38.1837 97.5353 38.61C98.0333 39.0079 98.6631 39.2069 99.4248 39.2069C100.45 39.2069 101.417 38.9653 102.325 38.4821C103.262 37.9705 104.083 37.3167 104.786 36.5209V40.1449C104.083 41.2818 103.101 42.2056 101.842 42.9162C100.611 43.6268 99.2197 43.9821 97.6671 43.9821C96.4367 43.9821 95.3089 43.7121 94.2836 43.172C93.2583 42.632 92.4234 41.893 91.7789 40.955C91.1637 39.9886 90.8562 38.8658 90.8562 37.5868ZM91.6032 22.4511C92.7163 21.9679 94.0639 21.5415 95.6458 21.172C97.2277 20.7741 98.9121 20.5751 100.699 20.5751C102.691 20.5751 104.434 20.9162 105.928 21.5984C107.422 22.2806 108.594 23.2896 109.443 24.6255C110.293 25.9614 110.718 27.61 110.718 29.5712V38.141C110.718 38.7379 110.732 39.278 110.762 39.7612C110.82 40.216 110.908 40.756 111.025 41.3813L111.377 43.4705H104.961L104.126 39.2069V29.9123C104.126 28.6617 103.76 27.6811 103.028 26.9705C102.325 26.2599 101.212 25.9046 99.6884 25.9046C98.458 25.9046 97.3009 26.0751 96.217 26.4162C95.1624 26.7289 94.2104 27.0842 93.3608 27.4821L91.6032 22.4511ZM113.998 43.4705L122.522 31.234L125.203 28.079L129.377 21.0868H136.584L128.498 32.5984L125.906 35.6255L121.204 43.4705H113.998ZM114.437 21.0868H122.083L127.356 29.5712L127.444 29.6992L137.023 43.4705H129.377L123.753 34.4743L123.665 34.3464L114.437 21.0868ZM140.546 43.4705V21.0868H147.137V43.4705H140.546ZM140.063 14.6488C140.063 13.6539 140.414 12.8012 141.117 12.0906C141.82 11.3516 142.729 10.9821 143.842 10.9821C144.955 10.9821 145.863 11.3516 146.566 12.0906C147.269 12.8012 147.621 13.6539 147.621 14.6488C147.621 15.6436 147.269 16.5105 146.566 17.2495C145.863 17.9601 144.955 18.3154 143.842 18.3154C142.729 18.3154 141.82 17.9601 141.117 17.2495C140.414 16.5105 140.063 15.6436 140.063 14.6488ZM151.962 37.5868C151.962 36.194 152.343 34.9576 153.105 33.8774C153.896 32.7973 155.082 31.9304 156.664 31.2767C158.275 30.6229 160.297 30.2534 162.728 30.1681L166.683 30.0402V33.6643L163.167 33.8348C161.849 33.8917 160.809 34.0764 160.048 34.3891C159.286 34.6733 158.729 35.0286 158.378 35.455C158.056 35.8813 157.894 36.3503 157.894 36.8619C157.894 37.601 158.143 38.1837 158.641 38.61C159.139 39.0079 159.769 39.2069 160.531 39.2069C161.556 39.2069 162.523 38.9653 163.431 38.4821C164.369 37.9705 165.189 37.3167 165.892 36.5209V40.1449C165.189 41.2818 164.207 42.2056 162.948 42.9162C161.717 43.6268 160.326 43.9821 158.773 43.9821C157.543 43.9821 156.415 43.7121 155.39 43.172C154.365 42.632 153.53 41.893 152.885 40.955C152.27 39.9886 151.962 38.8658 151.962 37.5868ZM152.709 22.4511C153.823 21.9679 155.17 21.5415 156.752 21.172C158.334 20.7741 160.018 20.5751 161.805 20.5751C163.797 20.5751 165.54 20.9162 167.034 21.5984C168.528 22.2806 169.7 23.2896 170.55 24.6255C171.399 25.9614 171.824 27.61 171.824 29.5712V38.141C171.824 38.7379 171.839 39.278 171.868 39.7612C171.926 40.216 172.014 40.756 172.132 41.3813L172.483 43.4705H166.068L165.233 39.2069V29.9123C165.233 28.6617 164.867 27.6811 164.134 26.9705C163.431 26.2599 162.318 25.9046 160.795 25.9046C159.564 25.9046 158.407 26.0751 157.323 26.4162C156.269 26.7289 155.317 27.0842 154.467 27.4821L152.709 22.4511ZM177.521 21.0868H183.936L184.771 25.5635V43.4705H178.18V26.4162C178.18 25.8193 178.15 25.2935 178.092 24.8387C178.063 24.3555 177.989 23.8012 177.872 23.1759L177.521 21.0868ZM184.112 29.486V25.4782C185.02 23.9433 186.148 22.7495 187.495 21.8968C188.842 21.0157 190.307 20.5751 191.889 20.5751V26.8852C190.161 26.8852 188.71 27.07 187.539 27.4395C186.397 27.809 185.254 28.4911 184.112 29.486Z" fill="#1B1B1B"/>
</svg>
